<svg xmlns="http://www.w3.org/2000/svg" xmlns:xlink="http://www.w3.org/1999/xlink" width="40" zoomAndPan="magnify" viewBox="0 0 30 30.000001" height="40" preserveAspectRatio="xMidYMid meet" version="1.0"><defs><g/><clipPath id="fcd7d4dc75"><path d="M 6.382812 18.644531 L 12.035156 18.644531 L 12.035156 28.304688 L 6.382812 28.304688 Z M 6.382812 18.644531 " clip-rule="nonzero"/></clipPath><clipPath id="8dd56f4d49"><path d="M 5.253906 1.042969 L 10.90625 1.042969 L 10.90625 6.695312 L 5.253906 6.695312 Z M 5.253906 1.042969 " clip-rule="nonzero"/></clipPath><clipPath id="edcb8e890e"><path d="M 8.078125 1.042969 C 6.519531 1.042969 5.253906 2.308594 5.253906 3.867188 C 5.253906 5.429688 6.519531 6.695312 8.078125 6.695312 C 9.640625 6.695312 10.90625 5.429688 10.90625 3.867188 C 10.90625 2.308594 9.640625 1.042969 8.078125 1.042969 Z M 8.078125 1.042969 " clip-rule="nonzero"/></clipPath><clipPath id="46760c6037"><path d="M 19.886719 17.585938 L 25.542969 17.585938 L 25.542969 23.472656 L 19.886719 23.472656 Z M 19.886719 17.585938 " clip-rule="nonzero"/></clipPath><clipPath id="8fb54c2f3c"><path d="M 18.101562 12.433594 L 20.765625 12.433594 L 20.765625 15.09375 L 18.101562 15.09375 Z M 18.101562 12.433594 " clip-rule="nonzero"/></clipPath><clipPath id="bbc71145ac"><path d="M 19.433594 12.433594 C 18.699219 12.433594 18.101562 13.027344 18.101562 13.765625 C 18.101562 14.5 18.699219 15.09375 19.433594 15.09375 C 20.167969 15.09375 20.765625 14.5 20.765625 13.765625 C 20.765625 13.027344 20.167969 12.433594 19.433594 12.433594 Z M 19.433594 12.433594 " clip-rule="nonzero"/></clipPath></defs><g clip-path="url(#fcd7d4dc75)"><path fill="#648dcb" d="M 6.382812 18.644531 L 12.035156 18.644531 L 12.035156 28.316406 L 6.382812 28.316406 Z M 6.382812 18.644531 " fill-opacity="1" fill-rule="nonzero"/></g><g clip-path="url(#8dd56f4d49)"><g clip-path="url(#edcb8e890e)"><path fill="#df3821" d="M 5.253906 1.042969 L 10.90625 1.042969 L 10.90625 6.695312 L 5.253906 6.695312 Z M 5.253906 1.042969 " fill-opacity="1" fill-rule="nonzero"/></g></g><g clip-path="url(#46760c6037)"><path fill="#ff914d" d="M 19.886719 17.585938 L 25.542969 17.585938 L 25.542969 23.480469 L 19.886719 23.480469 Z M 19.886719 17.585938 " fill-opacity="1" fill-rule="nonzero"/></g><g fill="#ffffff" fill-opacity="1"><g transform="translate(6.382472, 24.176362)"><g><path d="M 8.09375 -3.640625 L 2.828125 -3.640625 C 2.890625 -2.921875 3.09375 -2.398438 3.4375 -2.078125 C 3.78125 -1.753906 4.253906 -1.59375 4.859375 -1.59375 C 5.328125 -1.59375 5.707031 -1.679688 6 -1.859375 C 6.289062 -2.035156 6.523438 -2.300781 6.703125 -2.65625 L 6.859375 -2.65625 L 8.234375 -1.78125 C 7.960938 -1.195312 7.554688 -0.726562 7.015625 -0.375 C 6.484375 -0.0195312 5.765625 0.15625 4.859375 0.15625 C 4.015625 0.15625 3.28125 -0.00390625 2.65625 -0.328125 C 2.039062 -0.648438 1.566406 -1.128906 1.234375 -1.765625 C 0.898438 -2.398438 0.734375 -3.175781 0.734375 -4.09375 C 0.734375 -5.019531 0.910156 -5.800781 1.265625 -6.4375 C 1.617188 -7.082031 2.09375 -7.5625 2.6875 -7.875 C 3.289062 -8.195312 3.96875 -8.359375 4.71875 -8.359375 C 5.875 -8.359375 6.757812 -8.050781 7.375 -7.4375 C 7.988281 -6.820312 8.296875 -5.914062 8.296875 -4.71875 C 8.296875 -4.289062 8.28125 -3.957031 8.25 -3.71875 Z M 6.328125 -4.96875 C 6.304688 -5.59375 6.160156 -6.046875 5.890625 -6.328125 C 5.617188 -6.609375 5.226562 -6.75 4.71875 -6.75 C 3.675781 -6.75 3.0625 -6.15625 2.875 -4.96875 Z M 6.328125 -4.96875 "/></g></g></g><g fill="#ffffff" fill-opacity="1"><g transform="translate(14.451813, 24.176362)"><g/></g></g><g fill="#ffffff" fill-opacity="1"><g transform="translate(17.202741, 24.176362)"><g><path d="M 2.203125 -9.171875 C 1.835938 -9.171875 1.535156 -9.285156 1.296875 -9.515625 C 1.066406 -9.742188 0.953125 -10.035156 0.953125 -10.390625 C 0.953125 -10.742188 1.066406 -11.03125 1.296875 -11.25 C 1.535156 -11.476562 1.835938 -11.59375 2.203125 -11.59375 C 2.453125 -11.59375 2.671875 -11.539062 2.859375 -11.4375 C 3.054688 -11.332031 3.207031 -11.1875 3.3125 -11 C 3.425781 -10.820312 3.484375 -10.617188 3.484375 -10.390625 C 3.484375 -10.160156 3.425781 -9.953125 3.3125 -9.765625 C 3.207031 -9.578125 3.054688 -9.429688 2.859375 -9.328125 C 2.671875 -9.222656 2.453125 -9.171875 2.203125 -9.171875 Z M 1.1875 0 L 1.1875 -8.203125 L 3.234375 -8.203125 L 3.234375 0 Z M 1.1875 0 "/></g></g></g><g fill="#ffffff" fill-opacity="1"><g transform="translate(14.565712, 17.061351)"><g><path d="M 1.1875 0 L 1.1875 -11.484375 L 3.234375 -11.484375 L 3.234375 -7.125 L 3.390625 -7.09375 C 3.671875 -7.5 4.007812 -7.8125 4.40625 -8.03125 C 4.800781 -8.25 5.273438 -8.359375 5.828125 -8.359375 C 7.640625 -8.359375 8.546875 -7.332031 8.546875 -5.28125 L 8.546875 0 L 6.484375 0 L 6.484375 -5.015625 C 6.484375 -5.578125 6.367188 -5.984375 6.140625 -6.234375 C 5.921875 -6.484375 5.578125 -6.609375 5.109375 -6.609375 C 4.535156 -6.609375 4.078125 -6.414062 3.734375 -6.03125 C 3.398438 -5.65625 3.234375 -5.0625 3.234375 -4.25 L 3.234375 0 Z M 1.1875 0 "/></g></g></g><g fill="#ffffff" fill-opacity="1"><g transform="translate(5.937199, 14.065139)"><g><path d="M 3.5625 -4.765625 L 3.5625 -1.796875 L 8.75 -1.796875 L 8.75 0 L 1.40625 0 L 1.40625 -10.859375 L 8.625 -10.859375 L 8.625 -9.0625 L 3.5625 -9.0625 L 3.5625 -6.53125 L 7.984375 -6.53125 L 7.984375 -4.765625 Z M 3.5625 -4.765625 "/></g></g></g><g clip-path="url(#8fb54c2f3c)"><g clip-path="url(#bbc71145ac)"><path fill="#b9e185" d="M 18.101562 12.433594 L 20.765625 12.433594 L 20.765625 15.09375 L 18.101562 15.09375 Z M 18.101562 12.433594 " fill-opacity="1" fill-rule="nonzero"/></g></g></svg>